<?xml version="1.0" encoding="UTF-8" standalone="no"?>
<svg xmlns="http://www.w3.org/2000/svg" width="16" height="16" viewBox="0 0 16 16">
  <path d="M 4.5 10.5 L 7 8 L 4.4799 5.5201" stroke="#6C707E" fill-opacity="0" stroke-linecap="round"/>
  <path d="M 3 2 C 1.8950011 2 1 2.8950011 1 4 L 1 12 C 1 13.104999 1.8950011 14 3 14 L 7.9101562 14 L 8.2773438 13 L 3 13 C 2.4480006 13 2 12.551999 2 12 L 2 4 C 2 3.4480006 2.4480006 3 3 3 L 13 3 C 13.551999 3 14 3.4480006 14 4 L 14 10.261719 L 15.003906 12.90625 L 15 4 C 14.999513 2.8950012 14.104999 2 13 2 L 3 2 z " fill="#6c707e"/>
  <path d="m 8.577,14.5645 2.521,-6.868 h 1.074 l 2.605,6.868 h -1.03 l -0.623,-1.747 H 10.21 l -0.584,1.747 z m 1.908,-2.566 h 2.345 l -1.089,-2.997 -0.113,-0.422 -0.113,0.422 z" fill="#6c707e"/>
</svg>
